<svg width="40" height="40" viewBox="0 0 40 40" fill="none" xmlns="http://www.w3.org/2000/svg">
<path d="M28.3333 5V8.33333M20 5V8.33333M11.6667 5V8.33333M33.3333 35H6.66667C6.22464 35 5.80072 34.8244 5.48816 34.5118C5.17559 34.1993 5 33.7754 5 33.3333V8.33333C5 7.89131 5.17559 7.46738 5.48816 7.15482C5.80072 6.84226 6.22464 6.66667 6.66667 6.66667H33.3333C33.7754 6.66667 34.1993 6.84226 34.5118 7.15482C34.8244 7.46738 35 7.89131 35 8.33333V33.3333C35 33.7754 34.8244 34.1993 34.5118 34.5118C34.1993 34.8244 33.7754 35 33.3333 35ZM33.3333 6.66667H6.66667C6.22464 6.66667 5.80072 6.84226 5.48816 7.15482C5.17559 7.46738 5 7.89131 5 8.33333V15H35V8.33333C35 7.89131 34.8244 7.46738 34.5118 7.15482C34.1993 6.84226 33.7754 6.66667 33.3333 6.66667V6.66667Z" stroke="white" stroke-width="2" stroke-linecap="round" stroke-linejoin="round"/>
</svg>
