<svg width="200" height="120" viewBox="0 0 200 120" fill="none" xmlns="http://www.w3.org/2000/svg">
<g clip-path="url(#clip0_2_20)">
<path d="M153.125 118.22C150.564 116.056 149.009 112.638 149.417 109.311C149.825 105.984 152.351 102.925 155.628 102.218C158.905 101.512 162.64 103.468 163.636 106.669C164.183 100.497 164.815 94.0669 168.096 88.8113C171.067 84.0524 176.213 80.6472 181.79 80.038C187.367 79.4289 193.239 81.7297 196.717 86.1315C200.195 90.5334 201.047 96.9328 198.611 101.986C196.816 105.709 193.51 108.48 190.046 110.734C178.852 117.956 165.427 120.893 152.24 119.005L153.125 118.22Z" fill="#F2F2F2"/>
<path d="M191.202 81.8572C186.6 85.6054 182.378 89.7974 178.598 94.3727C172.682 101.508 167.894 109.509 164.402 118.095C164.147 118.722 165.164 118.995 165.417 118.375C171.13 104.42 180.251 92.1205 191.946 82.601C192.471 82.1734 191.723 81.4331 191.202 81.8572Z" fill="white"/>
<path d="M64.3832 117.632C67.9001 114.66 70.0363 109.966 69.4761 105.396C68.9159 100.826 65.4461 96.6242 60.9452 95.6537C56.4443 94.6833 51.3136 97.3697 49.9465 101.766C49.1941 93.2898 48.3272 84.4579 43.8204 77.2393C39.7397 70.7029 32.6718 66.0259 25.0118 65.1892C17.3517 64.3525 9.28672 67.5127 4.50944 73.5586C-0.267838 79.6046 -1.43753 88.3942 1.90835 95.3354C4.37314 100.449 8.91416 104.254 13.672 107.35C28.8512 117.227 47.681 121.347 65.5978 118.71" fill="#F2F2F2"/>
<path d="M12.0843 67.6878C18.4048 72.836 24.2031 78.5937 29.3955 84.8778C34.5887 91.1555 39.1608 97.9221 43.0475 105.083C45.22 109.099 47.1716 113.232 48.8936 117.461C49.2447 118.321 47.8476 118.696 47.5004 117.845C44.4503 110.389 40.6768 103.249 36.234 96.5286C31.8127 89.8326 26.7523 83.5812 21.1239 77.8623C17.9405 74.6293 14.5816 71.5737 11.0627 68.7095C10.3414 68.1221 11.369 67.1054 12.0843 67.6879L12.0843 67.6878Z" fill="white"/>
<path d="M143.563 119.31H59.6552V33.2184C59.6552 14.9017 74.5568 0 92.8735 0H110.345C128.662 0 143.563 14.9017 143.563 33.2184V119.31Z" fill="#F2F2F2"/>
<path d="M126.092 119.31H59.6551V33.2184C59.6368 26.1998 61.8593 19.3587 65.999 13.6909C66.1516 13.4829 66.3038 13.2776 66.4608 13.0746C68.4631 10.4484 70.846 8.13555 73.5307 6.21239C73.6823 6.10204 73.8346 5.99362 73.9891 5.88518C76.2356 4.33057 78.6657 3.0597 81.2241 2.10151C81.376 2.04392 81.5307 1.98622 81.6854 1.93088C83.9992 1.10515 86.3978 0.539533 88.8367 0.244465C88.9879 0.223809 89.1432 0.207647 89.2984 0.191483C91.6752 -0.0626478 94.0723 -0.0626478 96.4491 0.191483C96.6039 0.207647 96.7591 0.223807 96.9121 0.244686C99.3505 0.539773 101.748 1.10533 104.062 1.93089C104.216 1.98623 104.371 2.04393 104.523 2.10162C107.05 3.04773 109.452 4.29963 111.674 5.8294C111.829 5.93547 111.983 6.04391 112.136 6.15234C113.64 7.22653 115.054 8.42325 116.362 9.73027C117.41 10.7786 118.388 11.8961 119.287 13.0753C119.443 13.2777 119.595 13.483 119.748 13.6906C123.888 19.3584 126.11 26.1997 126.092 33.2184V119.31Z" fill="#CCCCCC"/>
<path d="M120.69 80.8046C122.721 80.8046 124.368 79.1578 124.368 77.1264C124.368 75.095 122.721 73.4483 120.69 73.4483C118.658 73.4483 117.011 75.095 117.011 77.1264C117.011 79.1578 118.658 80.8046 120.69 80.8046Z" fill="#FFD93D"/>
<path d="M136.689 116.732H133.871L132.53 105.861L136.69 105.861L136.689 116.732Z" fill="#FFB8B8"/>
<path d="M131.858 115.926H137.293V119.349H128.436C128.436 118.899 128.524 118.454 128.696 118.039C128.868 117.624 129.12 117.247 129.438 116.929C129.756 116.611 130.133 116.359 130.548 116.187C130.963 116.015 131.408 115.926 131.858 115.926Z" fill="#2F2E41"/>
<path d="M150.712 116.732H147.894L146.553 105.861L150.713 105.861L150.712 116.732Z" fill="#FFB8B8"/>
<path d="M145.881 115.926H151.316V119.349H142.459C142.459 118.899 142.547 118.454 142.719 118.039C142.891 117.624 143.143 117.247 143.461 116.929C143.779 116.611 144.156 116.359 144.571 116.187C144.986 116.015 145.431 115.926 145.881 115.926Z" fill="#2F2E41"/>
<path d="M122.551 77.8551C122.348 77.5564 122.214 77.2168 122.156 76.8604C122.099 76.5039 122.121 76.1392 122.219 75.792C122.318 75.4447 122.492 75.1234 122.729 74.8506C122.965 74.5778 123.258 74.3601 123.588 74.213L133.169 47.8069L137.883 50.3796L126.944 75.6143C127.154 76.1845 127.148 76.8122 126.927 77.3783C126.706 77.9444 126.284 78.4096 125.743 78.6858C125.201 78.962 124.577 79.03 123.989 78.8769C123.401 78.7238 122.889 78.3602 122.551 77.8551Z" fill="#FFB8B8"/>
<path d="M149.273 82.8169C148.96 82.6373 148.69 82.3913 148.482 82.096C148.274 81.8008 148.133 81.4636 148.07 81.1082C148.006 80.7528 148.022 80.3878 148.115 80.0389C148.208 79.69 148.376 79.3658 148.608 79.089L145.64 51.1558L151.005 51.4009L152.238 78.8768C152.677 79.2971 152.947 79.8638 152.996 80.4696C153.046 81.0755 152.871 81.6784 152.506 82.164C152.14 82.6497 151.609 82.9844 151.013 83.1047C150.417 83.2251 149.798 83.1227 149.273 82.8169Z" fill="#FFB8B8"/>
<path d="M140.714 42.9158C143.832 42.9158 146.36 40.3879 146.36 37.2696C146.36 34.1512 143.832 31.6234 140.714 31.6234C137.596 31.6234 135.068 34.1512 135.068 37.2696C135.068 40.3879 137.596 42.9158 140.714 42.9158Z" fill="#FFB8B8"/>
<path d="M149.237 76.4641H132.214L132.235 76.3316C132.265 76.1336 135.269 56.4606 133.054 50.0245C132.831 49.392 132.851 48.6997 133.109 48.0807C133.366 47.4618 133.844 46.96 134.449 46.672H134.449C137.615 45.1811 143.692 43.3453 148.821 47.8005C149.576 48.4669 150.166 49.2998 150.543 50.2332C150.92 51.1667 151.076 52.1752 150.996 53.1789L149.237 76.4641Z" fill="#FFD93D"/>
<path d="M135.484 59.3679L127.82 57.8132L131.412 49.3006C131.627 48.4761 132.161 47.7705 132.895 47.3386C133.63 46.9068 134.505 46.7838 135.33 46.9968C136.155 47.2098 136.862 47.7413 137.296 48.4747C137.73 49.2082 137.855 50.0837 137.644 50.9092L135.484 59.3679Z" fill="#FFD93D"/>
<path d="M145.299 62.2547L144.838 51.6935C144.489 49.7082 145.625 47.8314 147.373 47.5246C149.122 47.2189 150.829 48.5959 151.18 50.5958L152.912 60.4643L145.299 62.2547Z" fill="#FFD93D"/>
<path d="M148.67 75.1997C151.409 85.6311 151.708 98.8938 150.969 113.361L147.291 112.901L140.624 85.3146L136.946 113.361L132.808 113.131C131.572 97.9515 130.368 84.9203 132.349 76.3491L148.67 75.1997Z" fill="#2F2E41"/>
<path d="M144.434 41.6331C143.381 42.7551 141.425 42.1528 141.288 40.62C141.277 40.501 141.278 40.3812 141.29 40.2623C141.361 39.5834 141.753 38.9669 141.659 38.25C141.638 38.0716 141.571 37.9016 141.466 37.756C140.627 36.632 138.656 38.2588 137.864 37.2412C137.378 36.6173 137.949 35.635 137.577 34.9377C137.085 34.0173 135.627 34.4713 134.714 33.9673C133.697 33.4065 133.758 31.8466 134.427 30.8977C135.243 29.7406 136.674 29.1231 138.087 29.0341C139.501 28.9451 140.904 29.3272 142.224 29.8413C143.723 30.4256 145.209 31.233 146.132 32.5511C147.254 34.1542 147.362 36.3093 146.801 38.1837C146.459 39.324 145.294 40.7169 144.434 41.6331Z" fill="#2F2E41"/>
<path d="M193.099 119.458H23.3764C23.304 119.458 23.2346 119.429 23.1834 119.378C23.1322 119.326 23.1035 119.257 23.1035 119.185C23.1035 119.112 23.1322 119.043 23.1834 118.991C23.2346 118.94 23.304 118.911 23.3764 118.911H193.099C193.172 118.911 193.241 118.94 193.292 118.991C193.343 119.043 193.372 119.112 193.372 119.185C193.372 119.257 193.343 119.326 193.292 119.378C193.241 119.429 193.172 119.458 193.099 119.458Z" fill="#3F3D56"/>
<path d="M107.816 94.3678H77.931C77.5374 94.3699 77.1591 94.2159 76.879 93.9394C76.5988 93.6629 76.4398 93.2866 76.4368 92.893V26.1874C76.4398 25.7938 76.5988 25.4175 76.879 25.1411C77.1591 24.8646 77.5374 24.7105 77.931 24.7126H107.816C108.21 24.7105 108.588 24.8646 108.868 25.1411C109.148 25.4175 109.307 25.7938 109.31 26.1874V92.893C109.307 93.2866 109.148 93.6629 108.868 93.9394C108.588 94.2159 108.21 94.3699 107.816 94.3678Z" fill="white"/>
<path d="M109.31 46.2965H76.4368V46.7562H109.31V46.2965Z" fill="#CCCCCC"/>
<path d="M109.425 72.5287H76.5517V72.9885H109.425V72.5287Z" fill="#CCCCCC"/>
<path d="M87.2414 24.7126H86.7816V94.5977H87.2414V24.7126Z" fill="#CCCCCC"/>
<path d="M98.7356 24.7126H98.2759V94.5977H98.7356V24.7126Z" fill="#CCCCCC"/>
</g>
<defs>
<clipPath id="clip0_2_20">
<rect width="200" height="119.572" fill="white"/>
</clipPath>
</defs>
</svg>
