<svg width="200" height="174" viewBox="0 0 200 174" fill="none" xmlns="http://www.w3.org/2000/svg">
<g clip-path="url(#clip0_35_39)">
<path d="M185.176 160.882L190.563 159.173C191.234 156.282 191.19 153.27 190.433 150.4C188.269 155.212 181.919 156.391 178.301 160.233C177.181 161.439 176.348 162.882 175.862 164.455C175.376 166.027 175.251 167.689 175.495 169.317L174.361 173.162C177.008 172.936 179.575 172.138 181.885 170.825C184.194 169.511 186.191 167.712 187.739 165.552C188.595 164.332 189.294 163.009 189.819 161.614C187.521 161.384 185.176 160.882 185.176 160.882Z" fill="#F2F2F2"/>
<path d="M179.419 153.772L183.479 149.84C182.79 146.952 181.407 144.277 179.45 142.045C179.659 147.318 174.501 151.205 172.976 156.257C172.512 157.836 172.41 159.499 172.676 161.123C172.943 162.748 173.572 164.291 174.516 165.639L175.216 169.586C177.484 168.203 179.426 166.344 180.907 164.139C182.389 161.933 183.374 159.432 183.796 156.809C184.018 155.335 184.053 153.839 183.901 152.356C181.742 153.175 179.419 153.772 179.419 153.772Z" fill="#F2F2F2"/>
<path d="M152.431 11.5258H0.590685C0.432754 11.5225 0.282423 11.4574 0.171912 11.3445C0.0614023 11.2316 -0.000488281 11.08 -0.000488281 10.922C-0.000488281 10.764 0.0614023 10.6124 0.171912 10.4995C0.282423 10.3866 0.432754 10.3215 0.590685 10.3182H152.431C152.589 10.3215 152.739 10.3866 152.85 10.4995C152.96 10.6124 153.022 10.764 153.022 10.922C153.022 11.08 152.96 11.2316 152.85 11.3445C152.739 11.4574 152.589 11.5225 152.431 11.5258V11.5258Z" fill="#3F3D56"/>
<path d="M10.9266 7.23514C12.881 7.23514 14.4654 5.6155 14.4654 3.61757C14.4654 1.61964 12.881 0 10.9266 0C8.97227 0 7.38794 1.61964 7.38794 3.61757C7.38794 5.6155 8.97227 7.23514 10.9266 7.23514Z" fill="#3F3D56"/>
<path d="M23.1513 7.23514C25.1056 7.23514 26.69 5.6155 26.69 3.61757C26.69 1.61964 25.1056 0 23.1513 0C21.1969 0 19.6125 1.61964 19.6125 3.61757C19.6125 5.6155 21.1969 7.23514 23.1513 7.23514Z" fill="#3F3D56"/>
<path d="M35.3759 7.23514C37.3302 7.23514 38.9146 5.6155 38.9146 3.61757C38.9146 1.61964 37.3302 0 35.3759 0C33.4215 0 31.8372 1.61964 31.8372 3.61757C31.8372 5.6155 33.4215 7.23514 35.3759 7.23514Z" fill="#3F3D56"/>
<path d="M145.071 0.896667H136.387C136.215 0.900095 136.051 0.970873 135.93 1.09381C135.81 1.21674 135.742 1.38203 135.742 1.55418C135.742 1.72633 135.81 1.89162 135.93 2.01455C136.051 2.13749 136.215 2.20827 136.387 2.2117H145.071C145.243 2.20827 145.407 2.13749 145.527 2.01455C145.648 1.89162 145.715 1.72633 145.715 1.55418C145.715 1.38203 145.648 1.21674 145.527 1.09381C145.407 0.970873 145.243 0.900095 145.071 0.896667V0.896667Z" fill="#3F3D56"/>
<path d="M145.071 3.36475H136.387C136.215 3.36815 136.051 3.43892 135.93 3.56186C135.81 3.6848 135.742 3.8501 135.742 4.02226C135.742 4.19442 135.81 4.35973 135.93 4.48266C136.051 4.6056 136.215 4.67637 136.387 4.67977H145.071C145.243 4.67637 145.407 4.6056 145.527 4.48266C145.648 4.35973 145.715 4.19442 145.715 4.02226C145.715 3.8501 145.648 3.6848 145.527 3.56186C145.407 3.43892 145.243 3.36815 145.071 3.36475V3.36475Z" fill="#3F3D56"/>
<path d="M145.071 5.82965H136.387C136.215 5.83306 136.051 5.90382 135.93 6.02676C135.81 6.1497 135.742 6.315 135.742 6.48716C135.742 6.65933 135.81 6.82463 135.93 6.94756C136.051 7.0705 136.215 7.14127 136.387 7.14468H145.071C145.243 7.14127 145.407 7.0705 145.527 6.94756C145.648 6.82463 145.715 6.65933 145.715 6.48716C145.715 6.315 145.648 6.1497 145.527 6.02676C145.407 5.90382 145.243 5.83306 145.071 5.82965V5.82965Z" fill="#3F3D56"/>
<path d="M11.7629 36.0587C14.1791 36.0587 16.1378 34.1 16.1378 31.6838C16.1378 29.2676 14.1791 27.3089 11.7629 27.3089C9.34666 27.3089 7.38794 29.2676 7.38794 31.6838C7.38794 34.1 9.34666 36.0587 11.7629 36.0587Z" fill="#E6E7E8"/>
<path d="M123.171 41.3714H8.69076C8.34524 41.3714 8.01388 41.2341 7.76956 40.9898C7.52525 40.7455 7.388 40.4142 7.388 40.0686C7.388 39.7231 7.52525 39.3918 7.76956 39.1474C8.01388 38.9031 8.34524 38.7659 8.69076 38.7659H123.171C123.516 38.7659 123.848 38.9031 124.092 39.1474C124.336 39.3918 124.473 39.7231 124.473 40.0686C124.473 40.4142 124.336 40.7455 124.092 40.9898C123.848 41.2341 123.516 41.3714 123.171 41.3714V41.3714Z" fill="#E6E7E8"/>
<path d="M93.1463 46.5193H8.69077C8.34524 46.5193 8.01386 46.382 7.76953 46.1377C7.52521 45.8934 7.38794 45.562 7.38794 45.2165C7.38794 44.8709 7.52521 44.5395 7.76953 44.2952C8.01386 44.0509 8.34524 43.9136 8.69077 43.9136H93.1463C93.4918 43.9136 93.8232 44.0509 94.0676 44.2952C94.3119 44.5395 94.4491 44.8709 94.4491 45.2165C94.4491 45.562 94.3119 45.8934 94.0676 46.1377C93.8232 46.382 93.4918 46.5193 93.1463 46.5193V46.5193Z" fill="#E6E7E8"/>
<path d="M11.7629 104.344C14.1791 104.344 16.1378 102.386 16.1378 99.9695C16.1378 97.5533 14.1791 95.5945 11.7629 95.5945C9.34666 95.5945 7.38794 97.5533 7.38794 99.9695C7.38794 102.386 9.34666 104.344 11.7629 104.344Z" fill="#E6E7E8"/>
<path d="M123.171 109.657H8.69077C8.51952 109.657 8.34988 109.624 8.19158 109.558C8.03329 109.493 7.88943 109.397 7.76823 109.276C7.64704 109.155 7.55089 109.012 7.48529 108.853C7.41969 108.695 7.38593 108.526 7.38593 108.354C7.38593 108.183 7.41969 108.013 7.48529 107.855C7.55089 107.697 7.64704 107.553 7.76823 107.432C7.88943 107.311 8.03329 107.215 8.19158 107.15C8.34988 107.085 8.51952 107.051 8.69077 107.052H123.171C123.534 107.072 123.876 107.227 124.13 107.487C124.385 107.746 124.533 108.091 124.546 108.455C124.535 108.624 124.491 108.79 124.416 108.942C124.341 109.095 124.236 109.23 124.109 109.342C123.981 109.454 123.832 109.539 123.671 109.593C123.51 109.647 123.34 109.669 123.171 109.657V109.657Z" fill="#E6E7E8"/>
<path d="M93.1463 114.805H8.69077C8.34524 114.805 8.01386 114.668 7.76953 114.423C7.52521 114.179 7.38794 113.848 7.38794 113.502C7.38794 113.157 7.52521 112.825 7.76953 112.581C8.01386 112.336 8.34524 112.199 8.69077 112.199H93.1463C93.4918 112.199 93.8232 112.336 94.0676 112.581C94.3119 112.825 94.4491 113.157 94.4491 113.502C94.4491 113.848 94.3119 114.179 94.0676 114.423C93.8232 114.668 93.4918 114.805 93.1463 114.805V114.805Z" fill="#E6E7E8"/>
<path d="M11.7629 67.6276C14.1791 67.6276 16.1378 65.6689 16.1378 63.2527C16.1378 60.8365 14.1791 58.8778 11.7629 58.8778C9.34666 58.8778 7.38794 60.8365 7.38794 63.2527C7.38794 65.6689 9.34666 67.6276 11.7629 67.6276Z" fill="#E6E7E8"/>
<path d="M123.171 72.9403H8.69076C8.34524 72.9403 8.01388 72.803 7.76956 72.5587C7.52525 72.3144 7.388 71.9831 7.388 71.6375C7.388 71.292 7.52525 70.9607 7.76956 70.7164C8.01388 70.472 8.34524 70.3348 8.69076 70.3348H123.171C123.516 70.3348 123.848 70.472 124.092 70.7164C124.336 70.9607 124.473 71.292 124.473 71.6375C124.473 71.9831 124.336 72.3144 124.092 72.5587C123.848 72.803 123.516 72.9403 123.171 72.9403V72.9403Z" fill="#E6E7E8"/>
<path d="M107.229 78.0881H8.69077C8.34524 78.0881 8.01386 77.9509 7.76953 77.7065C7.52521 77.4622 7.38794 77.1308 7.38794 76.7853C7.38794 76.4398 7.52521 76.1084 7.76953 75.8641C8.01386 75.6197 8.34524 75.4825 8.69077 75.4825H107.229C107.574 75.4825 107.905 75.6197 108.15 75.8641C108.394 76.1084 108.531 76.4398 108.531 76.7853C108.531 77.1308 108.394 77.4622 108.15 77.7065C107.905 77.9509 107.574 78.0881 107.229 78.0881V78.0881Z" fill="#E6E7E8"/>
<path d="M100.541 83.236H8.69077C8.34524 83.236 8.01386 83.0988 7.76953 82.8544C7.52521 82.6101 7.38794 82.2787 7.38794 81.9332C7.38794 81.5877 7.52521 81.2563 7.76953 81.012C8.01386 80.7676 8.34524 80.6304 8.69077 80.6304H100.541C100.886 80.6304 101.217 80.7676 101.462 81.012C101.706 81.2563 101.843 81.5877 101.843 81.9332C101.843 82.2787 101.706 82.6101 101.462 82.8544C101.217 83.0988 100.886 83.236 100.541 83.236V83.236Z" fill="#E6E7E8"/>
<path d="M102.441 140.831C120.334 140.831 134.84 126.326 134.84 108.433C134.84 90.5394 120.334 76.0341 102.441 76.0341C84.5478 76.0341 70.0425 90.5394 70.0425 108.433C70.0425 126.326 84.5478 140.831 102.441 140.831Z" fill="#FFD93D"/>
<path d="M102.396 119.736C104.953 119.736 107.025 117.664 107.025 115.108C107.025 112.552 104.953 110.48 102.396 110.48C99.8403 110.48 97.7681 112.552 97.7681 115.108C97.7681 117.664 99.8403 119.736 102.396 119.736Z" fill="#3F3D56"/>
<path d="M102.397 117.244C103.576 117.244 104.533 116.288 104.533 115.108C104.533 113.928 103.576 112.972 102.397 112.972C101.217 112.972 100.26 113.928 100.26 115.108C100.26 116.288 101.217 117.244 102.397 117.244Z" fill="#FFD93D"/>
<path d="M110.988 125.411H93.894C92.2014 125.409 90.5787 124.736 89.3818 123.539C88.1849 122.342 87.5116 120.719 87.5096 119.027V111.189C87.5116 109.497 88.1848 107.874 89.3817 106.677C90.5786 105.48 92.2014 104.807 93.894 104.805H110.988C112.681 104.807 114.303 105.48 115.5 106.677C116.697 107.874 117.37 109.497 117.372 111.189V119.027C117.37 120.719 116.697 122.342 115.5 123.539C114.303 124.736 112.681 125.409 110.988 125.411V125.411ZM93.894 105.473C92.3786 105.475 90.9258 106.078 89.8542 107.149C88.7826 108.221 88.1798 109.674 88.1781 111.189V119.027C88.1799 120.542 88.7826 121.995 89.8542 123.067C90.9258 124.138 92.3786 124.741 93.894 124.742H110.988C112.503 124.741 113.956 124.138 115.028 123.067C116.099 121.995 116.702 120.542 116.704 119.027V111.189C116.702 109.674 116.099 108.221 115.028 107.149C113.956 106.078 112.504 105.475 110.988 105.473L93.894 105.473Z" fill="white"/>
<path d="M92.8816 121.157H108.054C108.842 121.157 109.622 121.001 110.349 120.7C111.077 120.399 111.738 119.957 112.295 119.4C112.852 118.843 113.293 118.182 113.595 117.455C113.896 116.727 114.051 115.947 114.051 115.16V108.601C114.05 107.873 113.916 107.152 113.656 106.473C114.396 107.031 114.997 107.752 115.41 108.581C115.824 109.411 116.039 110.325 116.039 111.251V117.81C116.039 118.598 115.884 119.377 115.583 120.105C115.281 120.833 114.84 121.494 114.283 122.051C113.726 122.607 113.065 123.049 112.337 123.351C111.61 123.652 110.83 123.807 110.042 123.807H94.8694C93.6535 123.806 92.4664 123.436 91.466 122.745C90.4655 122.054 89.699 121.075 89.268 119.937C90.3066 120.729 91.5761 121.157 92.8816 121.157Z" fill="#3F3D56"/>
<path d="M139.345 169.304L135.617 169.303L133.844 154.922L139.346 154.923L139.345 169.304Z" fill="#A0616A"/>
<path d="M139.477 173.193L128.012 173.193V173.048C128.012 171.864 128.482 170.729 129.319 169.892C130.156 169.055 131.291 168.585 132.474 168.585H132.474L134.569 166.996L138.476 168.585L139.477 168.585L139.477 173.193Z" fill="#2F2E41"/>
<path d="M165.726 169.304L169.454 169.303L171.228 154.922L165.725 154.923L165.726 169.304Z" fill="#A0616A"/>
<path d="M165.595 173.193L177.06 173.193V173.048C177.06 171.864 176.59 170.729 175.753 169.892C174.916 169.055 173.781 168.585 172.597 168.585H172.597L170.503 166.996L166.595 168.585L165.595 168.585L165.595 173.193Z" fill="#2F2E41"/>
<path d="M133.679 144.355C133.734 143.534 134.172 138.996 134.172 138.996L135.221 129.372L137.069 103.86L137.19 102.19L146.872 100.331L153.489 97.1592L161.354 99.6734L167.478 101.97C167.478 101.97 167.488 102.953 167.536 104.141C167.599 105.695 167.709 107.601 167.971 108.097C168.409 108.973 168.299 113.673 168.299 113.673C168.299 113.673 168.734 123.237 169.282 124.286C169.83 125.334 169.94 127.518 169.775 127.956C169.609 128.394 170.322 139.879 170.322 139.879C170.322 139.879 172.153 160.204 171.004 163.269C169.856 166.334 165.517 164.326 165.517 164.326C165.517 164.326 165.727 163.508 164.468 163.123C163.21 162.738 159.377 133.918 159.377 133.918C159.377 133.918 158.664 128.008 158.008 126.315C157.353 124.621 156.75 119.863 156.75 119.863C156.75 119.863 152.702 111.987 152.65 110.236C152.65 110.236 152.12 108.598 151.619 110.401C151.119 112.205 149.643 116.525 149.643 116.525L148.203 121.832L146.51 129.76L145.414 136.434C145.414 136.434 143.773 145.293 143.511 145.676C143.248 146.059 143.511 154.152 143.511 154.152C143.511 154.152 142.242 161.044 140.449 162.247C138.655 163.451 133.904 162.267 133.904 162.267C133.904 162.267 133.624 145.175 133.679 144.355Z" fill="#2F2E41"/>
<path d="M137.81 78.9227L139.962 85.4062L137.306 88.5677L138.476 89.7713L137.613 91.4726L135.364 109.305L147.696 113.982L151.849 108.776L155.123 113.982L169.393 110.496L165.754 87.7552V86.2685L164.727 83.3978V77.3207L167.44 59.2313L159.342 56.3947L155.469 53.3301L154.216 57.64L148.881 56.6911L148.742 53.4531L144.66 57.3098L141.223 58.2901L137.107 59.2313L136.583 60.5422L137.631 60.2801L137.461 77.3341L137.81 78.9227Z" fill="#2F2E41"/>
<path d="M134.124 102.645L136.195 82.5968L136.742 74.3457L130.944 73.2975C130.944 73.2975 131.174 79.1973 130.415 82.526C129.665 85.8107 130.315 102.205 130.361 102.643C129.936 103.024 129.636 103.525 129.501 104.08C129.366 104.635 129.403 105.218 129.606 105.751C129.81 106.285 130.171 106.744 130.641 107.068C131.112 107.392 131.669 107.566 132.24 107.566C132.811 107.566 133.369 107.393 133.84 107.07C134.31 106.746 134.672 106.287 134.876 105.754C135.08 105.22 135.117 104.637 134.983 104.082C134.849 103.527 134.549 103.026 134.124 102.645V102.645Z" fill="#A0616A"/>
<path d="M128.469 86.751L130.081 87.084L135.613 88.2297L135.92 88.2926L136.572 85.6972L137.33 84.8897L138.772 77.334L138.848 76.9408L141.027 72.2847L142.534 58.2902L136.929 59.2969C136.9 59.3258 136.874 59.3572 136.848 59.3887C136.043 60.301 135.469 61.5699 134.53 62.8467C131.476 67.002 129.132 77.0981 129.224 82.6298C129.227 82.7189 129.135 82.8159 129.025 82.9156C128.505 83.3933 128.166 84.0358 128.065 84.7345C127.963 85.4331 128.106 86.1454 128.469 86.751Z" fill="#2F2E41"/>
<path d="M170.161 102.645L168.09 82.5968L167.544 74.3457L173.341 73.2975C173.341 73.2975 173.111 79.1973 173.871 82.526C174.62 85.8107 173.97 102.205 173.924 102.643C174.349 103.024 174.65 103.525 174.784 104.08C174.919 104.635 174.882 105.218 174.679 105.751C174.475 106.285 174.114 106.744 173.644 107.068C173.174 107.392 172.616 107.566 172.045 107.566C171.474 107.566 170.916 107.393 170.445 107.07C169.975 106.746 169.614 106.287 169.409 105.754C169.205 105.22 169.168 104.637 169.302 104.082C169.436 103.527 169.736 103.026 170.161 102.645V102.645Z" fill="#A0616A"/>
<path d="M175.816 86.7511L174.204 87.084L168.672 88.2297L168.365 88.2926L167.713 85.6972L166.955 84.8897L165.513 77.334L165.437 76.9408L163.258 72.2847L163.757 58.2902L167.356 59.2969C167.385 59.3258 167.411 59.3572 167.437 59.3887C168.242 60.301 168.816 61.5699 169.755 62.8467C172.809 67.002 175.153 77.0981 175.061 82.6298C175.059 82.7189 175.15 82.8159 175.26 82.9156C175.78 83.3933 176.119 84.0358 176.221 84.7345C176.322 85.4332 176.179 86.1454 175.816 86.7511V86.7511Z" fill="#2F2E41"/>
<path d="M146.109 60.3608L148.742 53.4532L155.469 53.33L157.702 60.3608L165.725 105.183C165.725 105.183 141.144 112.028 141.394 103.8C141.656 95.1483 142.839 83.6562 142.839 83.6562L146.109 60.3608Z" fill="#FFD93D"/>
<path d="M151.955 51.5211C156.332 51.5211 159.88 47.9731 159.88 43.5964C159.88 39.2198 156.332 35.6718 151.955 35.6718C147.579 35.6718 144.031 39.2198 144.031 43.5964C144.031 47.9731 147.579 51.5211 151.955 51.5211Z" fill="#A0616A"/>
<path d="M143.563 37.8475C144.854 36.4433 146.467 33.8728 151.355 32.7934C157.395 31.4597 160.249 36.9158 158.726 37.0052C163.18 38.3539 160.319 47.5705 159.042 46.7976C159.031 46.7899 159.02 46.7817 159.01 46.7729C158.323 46.2672 157.747 45.6269 157.316 44.8909C156.885 44.1549 156.609 43.3389 156.504 42.4925L156.262 40.3115C156.227 42.0861 154.414 42.3208 152.561 41.6673C152.67 41.2782 152.879 40.9244 153.167 40.6408C153.455 40.3572 153.812 40.1537 154.203 40.0501C152.911 41.2212 151.271 41.9351 149.533 42.082C149.624 41.6377 149.809 41.218 150.076 40.8511C150.343 40.4842 150.685 40.1786 151.079 39.9549L151.006 39.883C150.282 40.4932 149.452 40.9636 148.556 41.2702C147.535 41.563 146.311 41.4046 145.611 40.605C145.422 40.3844 145.28 40.1282 145.192 39.8516C145.344 41.257 144.401 42.8612 143.669 42.5858C143.06 42.4674 142.705 38.7824 143.563 37.8475Z" fill="#2F2E41"/>
<path d="M200 173.192C200 173.244 199.99 173.296 199.97 173.345C199.95 173.393 199.921 173.437 199.884 173.474C199.847 173.511 199.803 173.54 199.755 173.56C199.706 173.58 199.655 173.59 199.602 173.59H105.92C105.814 173.59 105.713 173.548 105.638 173.473C105.564 173.399 105.522 173.298 105.522 173.192C105.522 173.087 105.564 172.986 105.638 172.911C105.713 172.836 105.814 172.794 105.92 172.794H199.602C199.655 172.794 199.706 172.804 199.755 172.824C199.803 172.844 199.847 172.874 199.884 172.911C199.921 172.948 199.95 172.991 199.97 173.04C199.99 173.088 200 173.14 200 173.192Z" fill="#CCCCCC"/>
<path d="M102.704 90.8658C99.5354 90.8658 96.7499 92.3003 95.1729 94.4537C96.8588 93.2267 98.8943 92.5735 100.979 92.5905C105.887 92.5905 109.879 96.0279 109.879 100.253V103.765H111.604V98.5283C111.604 94.3032 107.611 90.8658 102.704 90.8658Z" fill="#3F3D56"/>
<path d="M112.789 105.563H92.0934V99.4735C92.0934 94.5609 96.7353 90.5641 102.441 90.5641C108.147 90.5641 112.789 94.5609 112.789 99.4735V105.563ZM92.7619 104.894H112.12V99.4735C112.12 94.9294 107.778 91.2326 102.441 91.2326C97.1039 91.2326 92.7619 94.9294 92.7619 99.4735V104.894Z" fill="white"/>
<path d="M107.741 103.238H97.1409C96.664 103.237 96.2068 103.048 95.8696 102.71C95.5325 102.373 95.3428 101.916 95.3423 101.439V99.0159C95.3423 95.6373 98.5268 92.8887 102.441 92.8887C106.355 92.8887 109.54 95.6373 109.54 99.0159V101.439C109.539 101.916 109.35 102.373 109.012 102.71C108.675 103.048 108.218 103.237 107.741 103.238V103.238ZM102.441 93.5572C98.8953 93.5572 96.0108 96.0058 96.0108 99.0159V101.439C96.0111 101.739 96.1302 102.026 96.3421 102.238C96.554 102.45 96.8413 102.569 97.1409 102.569H107.741C108.041 102.569 108.328 102.45 108.54 102.238C108.752 102.026 108.871 101.739 108.871 101.439V99.0159C108.871 96.0058 105.987 93.5572 102.441 93.5572Z" fill="white"/>
</g>
<defs>
<clipPath id="clip0_35_39">
<rect width="200" height="173.59" fill="white"/>
</clipPath>
</defs>
</svg>
